{"title":"Voyage to the Bottom of the Sea(1961)","uid":12624299,"size":1050020985,"categoryP":"video","categoryS":"movies","magnet":"?xt=urn:btih:e185f07f3ff33d4a6e8731aa6467979595765d16&amp;dn=Voyage+to+the+Bottom+of+the+Sea%281961%29&amp;tr=udp%3A%2F%2Ftracker.leechers-paradise.org%3A6969&amp;tr=udp%3A%2F%2Fzer0day.ch%3A1337&amp;tr=udp%3A%2F%2Fopen.demonii.com%3A1337&amp;tr=udp%3A%2F%2Ftracker.coppersurfer.tk%3A6969&amp;tr=udp%3A%2F%2Fexodus.desync.com%3A6969","seeders":0,"leechers":0,"uploader":"dascuba","files":1,"time":1445649989,"description":"Voyage to the Bottom of the Sea (1961)\r\nPG  |  105 min  |  Action, Adventure, Sci-Fi  |  12 July 1961 (USA)\r\n6.1 Your rating:   -/10   Ratings: 6.1/10 from 3,924 users   \r\nReviews: 67 user | 45 critic\r\nWhen the Earth is threatened by a burning Van Allen Radiation Belt, US Navy Admiral Harriman Nelson plans to shoot a nuclear missile at the Belt using his experimental atomic submarine, the Seaview.\r\n\r\nDirector: Irwin Allen\r\nWriters: Irwin Allen (screenplay), Charles Bennett (screenplay), 1 more credit »\r\nStars: Walter Pidgeon, Joan Fontaine, Barbara Eden \r\n\r\nGeneral\r\nComplete name                            : C:Voyage to the Bottom of the SeaVOYAGE_BOTTOM_SEA_Title1.mp4\r\nFormat                                   : MPEG-4\r\nFormat profile                           : Base Media\r\nCodec ID                                 : isom\r\nFile size                                : 1 001 MiB\r\nDuration                                 : 1h 44mn\r\nOverall bit rate                         : 1 336 Kbps\r\nMovie name                               : VOYAGE_BOTTOM_SEA\r\nGenre                                    : Science_Fiction\r\nWriting application                      : Lavf54.6.100\r\n\r\nVideo\r\nID                                       : 1\r\nFormat                                   : AVC\r\nFormat/Info                              : Advanced Video Codec\r\nFormat profile                           :   \r\nFormat settings, CABAC                   : No\r\nFormat settings, ReFrames                : 6 frames\r\nCodec ID                                 : avc1\r\nCodec ID/Info                            : Advanced Video Coding\r\nDuration                                 : 1h 44mn\r\nBit rate                                 : 1 202 Kbps\r\nWidth                                    : 720 pixels\r\nHeight                                   : 404 pixels\r\nDisplay aspect ratio                     : 16:9\r\nFrame rate mode                          : Constant\r\nFrame rate                               : 29.970 fps\r\nColor space                              : YUV\r\nChroma subsampling                       : 4:2:0\r\nBit depth                                : 8 bits\r\nScan type                                : Progressive\r\nBits/(Pixel*Frame)                       : 0.138\r\nStream size                              : 900 MiB (90%)\r\n\r\nAudio\r\nID                                       : 2\r\nFormat                                   : AAC\r\nFormat/Info                              : Advanced Audio Codec\r\nFormat profile                           : LC\r\nCodec ID                                 : 40\r\nDuration                                 : 1h 44mn\r\nBit rate mode                            : Constant\r\nBit rate                                 : 128 Kbps\r\nChannel(s)                               : 2 channels\r\nChannel positions                        : Front: L R\r\nSampling rate                            : 44.1 KHz\r\nCompression mode                         : Lossy\r\nStream size                              : 95.9 MiB (10%)","torrent":{"xt":"urn:btih:e185f07f3ff33d4a6e8731aa6467979595765d16","amp;dn":"Voyage+to+the+Bottom+of+the+Sea%281961%29","amp;tr":["udp%3A%2F%2Ftracker.leechers-paradise.org%3A6969","udp%3A%2F%2Fzer0day.ch%3A1337","udp%3A%2F%2Fopen.demonii.com%3A1337","udp%3A%2F%2Ftracker.coppersurfer.tk%3A6969","udp%3A%2F%2Fexodus.desync.com%3A6969"],"infoHash":"e185f07f3ff33d4a6e8731aa6467979595765d16","infoHashBuffer":{"type":"Buffer","data":[225,133,240,127,63,243,61,74,110,135,49,170,100,103,151,149,149,118,93,22]},"announce":[],"urlList":[]}}